<svg width="1540" height="780" viewBox="0 0 1540 780" fill="none" xmlns="http://www.w3.org/2000/svg">
<rect width="1540" height="780" fill="#1E1E1E"/>
<rect width="1540" height="780" fill="url(#paint0_linear_2_107)"/>
<path d="M925.786 581.506C866.359 520.739 892.082 426.437 1007.2 404.954C1122.31 383.471 1147.14 254.629 1251.83 281.525C1356.51 308.365 1396.29 506.231 1288.82 581.506H925.786Z" fill="#FFF8F8"/>
<path d="M933.096 565.882H925.786V382.579H933.096V565.882Z" fill="#3B364D"/>
<path d="M1202.05 581.506C1202.05 584.128 1225.32 586.304 1254.06 586.304C1282.79 586.304 1306.12 584.128 1306.12 581.506C1306.12 578.827 1282.79 576.651 1254.06 576.651C1225.32 576.651 1202.05 578.827 1202.05 581.506Z" fill="#FFE5E2"/>
<path d="M959.991 586.639C959.991 592.108 1005.3 596.572 1061.16 596.572C1117.01 596.572 1162.27 592.108 1162.27 586.639C1162.27 581.115 1117.01 576.651 1061.16 576.651C1005.3 576.651 959.991 581.115 959.991 586.639Z" fill="#FFE5E2"/>
<path d="M1196.3 394.743H1337.37C1344.01 394.743 1349.36 389.386 1349.36 382.746V260.432C1349.36 253.792 1344.01 248.435 1337.37 248.435H1196.3C1189.66 248.435 1184.31 253.792 1184.31 260.432V382.746C1184.31 389.386 1189.66 394.743 1196.3 394.743Z" fill="#AAB2C8"/>
<path d="M1195.47 382.69H1338.2V260.544H1195.47V382.69Z" fill="#E0E7FF"/>
<path d="M1266.83 260.544V382.69" stroke="#AAB2C8" stroke-width="2" stroke-miterlimit="10"/>
<path d="M1195.47 321.589H1338.2" stroke="#AAB2C8" stroke-width="2" stroke-miterlimit="10"/>
<path opacity="0.5" d="M1275.76 260.544L1323.58 382.579H1302.44L1254.06 260.544H1275.76Z" fill="white"/>
<path opacity="0.5" d="M1238.77 260.544L1286.59 382.579H1265.44L1217.06 260.544H1238.77Z" fill="white"/>
<path d="M898.555 389.107H1039.06V375.994H898.555V389.107Z" fill="#773C4D"/>
<path d="M898.555 389.107H988.17V375.994H898.555V389.107Z" fill="#965363"/>
<path d="M936.946 375.994H1008.65C1011.1 375.994 1013.11 373.985 1013.11 371.53V359.477C1013.11 357.022 1011.1 354.958 1008.65 354.958H936.946V375.994Z" fill="#61648A"/>
<path d="M935.718 371.586H1007.59V359.422H935.718V371.586Z" fill="#EDF1FC"/>
<path d="M956.476 371.586H1007.81V359.422H956.476V371.586Z" fill="#E0E7FF"/>
<path d="M948.72 354.958H1020.37C1022.88 354.958 1024.89 352.949 1024.89 350.438V338.441C1024.89 335.93 1022.88 333.921 1020.37 333.921H948.72V354.958Z" fill="#FFC55A"/>
<path d="M947.66 350.549H1019.53V338.385H947.66V350.549Z" fill="#EDF1FC"/>
<path d="M967.859 350.549H1019.53V338.385H967.859V350.549Z" fill="#E0E7FF"/>
<path d="M932.481 333.921H1004.13C1006.64 333.921 1008.65 331.912 1008.65 329.401V317.404C1008.65 314.893 1006.64 312.884 1004.13 312.884H932.481V333.921Z" fill="#AF2F48"/>
<path d="M931.199 329.457H1003.07V317.348H931.199V329.457Z" fill="#EDF1FC"/>
<path d="M954.858 329.457H1003.29V317.348H954.858V329.457Z" fill="#E0E7FF"/>
<path d="M1012.28 484.414C1012.16 500.093 1013.67 514.992 1017.69 528.44C1017.73 528.44 1017.74 528.44 1017.74 528.44C1029.07 566.049 1060.6 591.94 1134.31 589.541C1234.42 586.304 1252.61 493.23 1260.98 406.238C1267.78 335.651 1246.58 283.701 1182.86 266.626C1168.07 262.609 1150.94 260.544 1131.35 260.544C1041.29 260.544 1012.67 424.875 1012.28 484.414Z" fill="#FFC55A"/>
<path d="M1017.74 528.44C1029.07 566.049 1060.6 591.94 1134.31 589.541C1234.42 586.304 1252.61 493.23 1260.98 406.238C1267.78 335.651 1246.58 283.701 1182.86 266.626C1237.6 299.939 1251.16 360.705 1228.78 453.166C1206.46 545.57 1150.05 572.466 1113.5 572.522C1077 572.578 1031.14 560.636 1017.74 528.44Z" fill="#F49947"/>
<path d="M1156.69 347.759C1228.11 360.482 1196.97 462.428 1181.18 490.998C1165.39 519.568 1158.64 553.382 1122.2 554.889C1085.76 556.396 1039.17 539.823 1034.65 527.826C1030.13 515.773 1050.78 453.11 1050.78 453.11C1050.78 453.11 1053.62 389.721 1073.38 373.093C1093.13 356.408 1132.97 343.574 1156.69 347.759Z" fill="#F49947"/>
<path d="M1061.16 519.735C1074.16 544.12 1118.63 552.657 1133.86 548.807C1142.79 546.575 1153.56 538.428 1163.33 526.71C1169.58 515.717 1174.6 502.883 1181.18 490.998C1183.64 486.534 1186.48 480.284 1189.27 472.807C1194.69 446.637 1194.52 415.556 1184.31 404.954C1170.41 390.614 1156.96 380.458 1155.96 371.586C1155.23 364.611 1163.16 355.348 1161.54 348.82C1160.02 348.41 1158.4 348.057 1156.69 347.759C1137.16 344.3 1106.69 352.391 1085.54 364.667C1083.48 372.423 1083.31 382.746 1078.51 386.094C1071.14 391.228 1059.71 423.48 1056.86 438.602C1053.96 453.724 1061.16 519.735 1061.16 519.735Z" fill="#F27C49"/>
<path d="M964.176 558.404C963.618 567.556 937.057 555.893 933.542 550.816C933.542 550.816 948.105 592.554 955.638 592.554C963.227 592.554 983.817 570.792 983.817 570.792L981.362 558.404H964.176Z" fill="#AF2F48"/>
<path d="M955.639 592.554C963.897 596.069 943.307 544.175 933.542 545.347C923.777 546.519 945.037 587.978 955.639 592.554Z" fill="#D35473"/>
<path d="M961.051 498.308C961.553 525.148 968.528 558.404 968.528 558.404H985.714C985.714 558.404 996.261 535.75 1001.23 512.983C1002.45 507.236 1003.35 501.488 1003.63 496.132C1003.63 496.132 1030.3 504.167 1056.02 499.368C1066.74 497.359 1078.9 493.955 1089.45 490.663C1104.18 486.032 1115.78 481.624 1115.78 481.624L1114.89 480.508L1096.09 456.737L1045.53 449.148L1039.62 448.255L1003.63 459.415C971.764 462.875 960.493 471.412 961.051 498.308Z" fill="#31344C"/>
<path opacity="0.5" d="M1001.23 512.983C1002.45 507.236 1003.35 501.488 1003.63 496.132C1003.63 496.132 1030.3 504.167 1056.02 499.368C1066.74 497.359 1078.9 493.955 1089.45 490.663L1114.89 480.508L1117.12 479.671L1121.36 462.038L1066.96 443.066L1045.53 449.148L1009.54 459.415C1018.25 474.983 1000.72 493.509 996.93 499.033C993.08 504.613 982.143 495.629 975.224 499.033C968.305 502.437 995.703 500.819 1001.23 512.983Z" fill="#232433"/>
<path d="M991.071 573.415C983.203 590.601 971.485 598.804 965.236 596.069L967.97 567.556L979.297 562.701L991.071 573.415Z" fill="#AF2F48"/>
<path d="M965.236 596.069C979.13 598.413 976.563 571.462 975.782 558.404C975.001 545.347 964.064 546.519 962.892 556.675C961.721 566.774 955.862 594.507 965.236 596.069Z" fill="#D35473"/>
<path d="M979.298 562.701L991.071 573.415C1039.39 559.465 1067.85 515.438 1067.85 515.438C1094.69 546.575 1124.77 553.55 1148.93 515.438C1148.93 515.438 1147.42 498.531 1127.78 485.474C1123.99 482.907 1119.52 480.508 1114.22 478.443C1093.24 470.129 1065.34 468.511 1048.15 468.399C1037.78 468.343 1028.07 473.421 1022.04 481.847C1011.94 496.187 1002.29 513.876 994.754 529.109C985.436 547.802 979.298 562.701 979.298 562.701Z" fill="#383952"/>
<path opacity="0.5" d="M979.298 562.701L991.071 573.415C1039.39 559.465 1067.85 515.438 1067.85 515.438C1094.69 546.575 1124.77 553.55 1148.93 515.438C1148.93 515.438 1147.42 498.531 1127.78 485.474L1107.53 481.679C1131.19 528.105 1074.38 517.28 1064.11 508.854C1053.85 500.372 1044.19 491.891 1039.62 491.389C1035.04 490.942 1059.2 508.798 1042.13 529.109C1025.11 549.421 985.826 562.087 994.754 529.109C985.436 547.802 979.298 562.701 979.298 562.701Z" fill="#232433"/>
<path d="M1097.04 331.522H1097.76C1097.76 331.522 1104.9 358.919 1117.12 369.131C1119.3 370.972 1121.7 372.256 1124.21 372.758C1140.67 375.771 1155.01 357.022 1157.75 344.132C1159.25 336.934 1156.57 332.526 1153.9 330.071C1151.83 328.062 1149.77 327.281 1149.77 327.281C1149.77 327.281 1148.65 307.025 1141.62 307.36C1134.81 307.695 1135.93 310.429 1136.04 310.597C1135.59 310.039 1120.81 290.397 1110.65 292.517C1100.27 294.694 1107.53 309.927 1107.53 309.927C1107.53 309.927 1094.53 296.702 1090.17 304.291C1085.82 311.88 1098.65 321.143 1098.65 321.143C1098.65 321.143 1087.61 320.975 1086.55 324.937C1085.43 328.899 1087.05 332.749 1097.04 331.522Z" fill="#6D3744"/>
<path d="M1117.12 369.131C1119.3 370.972 1121.7 372.256 1124.21 372.758C1140.67 375.771 1155.01 357.022 1157.75 344.132C1159.25 336.934 1156.57 332.526 1153.9 330.071C1151.44 333.251 1148.2 339.613 1140.73 331.522H1137.21L1117.12 369.131Z" fill="#542633"/>
<path d="M1073.38 450.655L1148.59 520.349C1152.22 517.057 1155.4 513.653 1158.19 510.082C1163.27 503.497 1166.95 496.411 1169.58 489.101C1171.53 483.577 1172.87 477.885 1173.76 472.082C1175.83 458.913 1175.55 445.075 1174.71 431.348C1172.76 399.263 1163.05 377.836 1124.49 377.278C1124.49 377.278 1106.86 372.311 1093.74 379.398C1083.48 384.922 1076.78 425.824 1074.38 443.066C1073.71 447.697 1073.38 450.655 1073.38 450.655Z" fill="#61648A"/>
<path opacity="0.4" d="M1089.39 418.904C1129.01 433.747 1145.36 404.954 1145.36 404.954L1158.19 450.989L1130.79 459.415L1083.09 454.449L1089.39 418.904Z" fill="#383952"/>
<path opacity="0.4" d="M1073.38 450.655L1148.59 520.349C1152.22 517.057 1155.4 513.653 1158.19 510.082C1145.08 509.077 1117.01 477.773 1124.38 476.155C1130.96 474.704 1153.73 490.161 1169.58 489.101C1171.53 483.577 1172.87 477.885 1173.76 472.082L1149.6 450.989L1074.38 443.066C1073.71 447.697 1073.38 450.655 1073.38 450.655Z" fill="#383952"/>
<path d="M1115.78 441.392C1106.91 435.421 1096.65 440.387 1093.02 443.066C1089.34 445.688 1093.02 452.663 1093.02 452.663C1093.02 452.663 1096.98 450.32 1098.32 449.985C1099.66 449.706 1106.02 454.672 1118.74 452.663C1131.46 450.655 1115.78 441.392 1115.78 441.392Z" fill="#F4B8AB"/>
<path d="M1167.4 399.765C1150.05 386.819 1140.22 398.147 1141.06 420.467C1141.9 442.843 1141.9 442.843 1141.9 442.843C1141.9 442.843 1119.8 435.756 1114.44 435.756C1114.44 435.756 1113.94 451.045 1114.44 456.514C1114.44 456.514 1141.12 482.349 1158.75 484.302C1176.38 486.311 1172.87 451.436 1174.43 435.365C1175.99 419.295 1173.37 404.229 1167.4 399.765Z" fill="#61648A"/>
<path d="M1096.09 453.724L1082.92 400.49C1081.58 395.078 1076.72 391.228 1071.14 391.228H995.759C990.792 391.228 987.165 395.915 988.393 400.714L1003.63 456.346L1096.09 453.724Z" fill="#C3C9F4"/>
<path d="M1090.79 453.724L1077.67 400.49C1076.33 395.078 1071.42 391.228 1065.84 391.228H990.457C985.491 391.228 981.864 395.915 983.091 400.714L998.325 456.346L1090.79 453.724Z" fill="#E0E7FF"/>
<path d="M1020.09 459.025H1116.01C1117.46 459.025 1118.69 457.797 1118.69 456.346C1118.69 454.895 1117.46 453.724 1116.01 453.724H1020.09C1018.64 453.724 1017.46 454.895 1017.46 456.346C1017.46 457.797 1018.64 459.025 1020.09 459.025Z" fill="#C3C9F4"/>
<path d="M997.488 459.025H1093.41C1094.86 459.025 1096.09 457.797 1096.09 456.346C1096.09 454.895 1094.86 453.724 1093.41 453.724H997.488C996.038 453.724 994.866 454.895 994.866 456.346C994.866 457.797 996.038 459.025 997.488 459.025Z" fill="#E0E7FF"/>
<path d="M1029.57 423.647C1030.86 430.567 1033.98 435.812 1036.55 435.31C1039.17 434.863 1040.29 428.837 1039 421.918C1037.72 414.998 1034.59 409.753 1031.97 410.255C1029.41 410.758 1028.29 416.728 1029.57 423.647Z" fill="#C3C9F4"/>
<path d="M1092.74 335.986C1091.06 360.482 1094.97 371.363 1108.87 372.758V378.449C1108.87 382.69 1112.32 386.094 1116.57 386.094C1120.75 386.094 1124.21 382.69 1124.21 378.449V372.758C1124.21 372.758 1135.31 368.015 1137.55 361.04C1139.78 354.065 1137.55 359.924 1137.55 359.924L1138.55 331.522H1092.35L1092.74 335.986Z" fill="#F4B8AB"/>
<path d="M1136.88 349.266C1140.39 342.849 1144.47 345.527 1145.3 349.266C1146.14 352.949 1138.72 361.988 1136.88 358.808C1135.04 355.627 1136.88 349.266 1136.88 349.266Z" fill="#F4B8AB"/>
<path d="M1144.52 328.397C1137.1 337.436 1115.95 342.179 1108.31 340.003C1100.66 337.827 1111.54 330.74 1111.54 330.74C1111.54 330.74 1097.31 340.505 1090.84 337.269C1084.37 333.977 1101.83 326.053 1101.83 326.053L1144.52 328.397Z" fill="#6D3744"/>
<path d="M1119.24 347.759C1119.24 349.099 1119.47 350.159 1119.75 350.159C1120.02 350.159 1120.25 349.099 1120.25 347.759C1120.25 346.476 1120.02 345.416 1119.75 345.416C1119.47 345.416 1119.24 346.476 1119.24 347.759Z" stroke="#191918" stroke-width="4" stroke-miterlimit="10"/>
<path d="M1104.18 347.759C1104.18 349.099 1104.4 350.159 1104.68 350.159C1104.96 350.159 1105.24 349.099 1105.24 347.759C1105.24 346.476 1104.96 345.416 1104.68 345.416C1104.4 345.416 1104.18 346.476 1104.18 347.759Z" stroke="#191918" stroke-width="4" stroke-miterlimit="10"/>
<path d="M1110.2 361.04C1117.46 361.207 1123.04 355.962 1123.04 355.962" stroke="#E56A85" stroke-width="2" stroke-miterlimit="10" stroke-linecap="round"/>
<g opacity="0.5">
<path d="M1108.86 372.758C1115.06 373.316 1122.2 373.093 1122.2 373.093L1108.86 378.449V372.758Z" fill="#DD6595"/>
</g>
<g opacity="0.5">
<path d="M1137.21 350.996C1140.34 347.704 1141.9 349.043 1141.68 352.447C1141.45 355.85 1137.38 358.306 1136.04 357.301C1134.7 356.353 1137.21 350.996 1137.21 350.996Z" fill="#DD6595"/>
</g>
<path d="M1259.3 521.632C1273.2 516.499 1280.79 518.507 1285.03 512.872C1285.03 512.872 1273.75 510.863 1267.51 512.872L1259.3 521.632Z" fill="#7C9E1E"/>
<path d="M1267.5 512.872C1284.36 504.055 1289.32 494.067 1293.62 487.204C1297.92 480.285 1300.26 474.593 1301.93 474.091C1303.61 473.644 1295.07 475.318 1286.98 483.354C1278.89 491.445 1275.54 492.672 1269.12 499.089C1262.71 505.506 1257.01 514.936 1256.29 521.632H1259.3L1267.5 512.872Z" fill="#B7AC15"/>
<path d="M1262.71 510.472C1271.8 496.522 1263.65 488.487 1274.59 472.696C1287.42 454.17 1283.41 435.589 1281.51 423.982C1281.51 423.982 1284.36 437.542 1273.2 450.71C1262.04 463.879 1251.1 469.013 1250.15 488.654C1249.2 508.352 1253 521.632 1253 521.632H1259.3L1262.71 510.472Z" fill="#7C9E1E"/>
<path d="M1254.45 521.632C1257.52 508.519 1251.55 486.255 1251.1 464.102C1250.6 442.006 1262.99 425.656 1244.68 404.954C1244.68 404.954 1248.48 408.749 1243.23 423.982C1237.99 439.16 1226.38 455.119 1232.07 475.541C1237.76 495.964 1250.04 512.704 1249.98 521.632H1254.45Z" fill="#B7AC15"/>
<path d="M1249.98 521.632C1251.88 505.897 1235.87 481.456 1222.31 475.988C1222.31 475.988 1220.91 488.041 1229.67 497.806C1238.49 507.626 1245.02 521.632 1245.02 521.632H1249.98Z" fill="#A88F14"/>
<path d="M1245.02 521.632C1244.4 511.198 1235.42 507.515 1226.16 504.836C1226.16 504.836 1237.32 516.108 1239.21 521.632H1245.02Z" fill="#426313"/>
<path opacity="0.4" d="M1240.66 522.804C1239.1 514.88 1235.53 512.425 1236.2 511.979C1236.81 511.532 1240.89 518.173 1242.95 521.632C1242.95 521.632 1245.63 512.593 1241.56 504.836C1237.54 497.08 1233.69 491.221 1233.69 491.221C1233.69 491.221 1246.75 506.343 1247.42 513.988C1247.42 513.988 1248.81 506.287 1246.52 496.355C1244.29 486.478 1238.43 476.992 1240.55 465.274C1242.73 453.556 1245.02 441.001 1245.02 441.001C1245.02 441.001 1244.07 452.942 1242.95 463.265C1241.78 473.644 1244.85 479.057 1247.86 490.105C1250.82 501.154 1249.15 516.889 1250.43 516.778C1251.71 516.722 1253.78 519.623 1253.78 519.623C1253.78 519.623 1255.12 502.716 1257.13 488.264C1259.19 473.867 1258.97 471.914 1267.73 463.265C1276.54 454.672 1277.66 449.427 1277.66 449.427C1277.66 449.427 1271.75 461.201 1266.78 468.901C1261.87 476.546 1260.31 479.95 1260.31 493.453C1260.31 507.013 1259.64 514.601 1258.52 516.778C1257.35 518.954 1266.83 503.944 1274.31 498.81C1281.73 493.676 1287.82 486.701 1288.49 485.585C1289.15 484.469 1281.29 498.643 1275.43 502.493C1269.57 506.343 1259.3 519.4 1259.3 519.4L1276.1 514.88L1257.13 522.804H1240.66Z" fill="#426313"/>
<path d="M1225.71 525.817L1234.64 577.209C1234.75 577.842 1234.96 578.4 1235.25 578.883C1236.2 580.446 1237.88 581.506 1239.77 581.506H1271.86C1274.37 581.506 1276.54 579.664 1276.94 577.153L1285.31 525.762C1285.86 522.581 1283.41 519.735 1280.23 519.735H1230.84C1227.61 519.735 1225.21 522.637 1225.71 525.817Z" fill="#3A3852"/>
<path opacity="0.5" d="M1235.25 578.883C1236.2 580.446 1237.88 581.506 1239.77 581.506H1271.86C1274.37 581.506 1276.54 579.664 1276.94 577.153L1285.31 525.762C1285.86 522.581 1283.41 519.735 1280.23 519.735H1263.21C1278.94 544.176 1252.72 572.578 1235.25 578.883Z" fill="#232433"/>
<path d="M1181.18 490.998C1174.6 502.883 1169.58 515.717 1163.33 526.71C1170.19 518.563 1176.55 508.687 1181.52 497.806C1184.64 490.886 1187.32 482.182 1189.27 472.807C1186.48 480.284 1183.64 486.534 1181.18 490.998Z" fill="#FFC55A"/>
<defs>
<linearGradient id="paint0_linear_2_107" x1="57" y1="282" x2="1507" y2="282" gradientUnits="userSpaceOnUse">
<stop stop-color="#2342D6"/>
<stop offset="1" stop-color="#064485"/>
</linearGradient>
</defs>
</svg>
