<svg width="1557" height="780" viewBox="0 0 1557 780" fill="none" xmlns="http://www.w3.org/2000/svg">
<rect width="1540" height="780" fill="white"/>
<rect x="787" width="770" height="780" fill="#2341D5"/>
<path d="M1026.92 322.08V350H1021.32V338.12H1009.36V350H1003.76V322.08H1009.36V333.56H1021.32V322.08H1026.92ZM1035.27 325.2C1034.29 325.2 1033.46 324.893 1032.79 324.28C1032.15 323.64 1031.83 322.853 1031.83 321.92C1031.83 320.987 1032.15 320.213 1032.79 319.6C1033.46 318.96 1034.29 318.64 1035.27 318.64C1036.26 318.64 1037.07 318.96 1037.71 319.6C1038.38 320.213 1038.71 320.987 1038.71 321.92C1038.71 322.853 1038.38 323.64 1037.71 324.28C1037.07 324.893 1036.26 325.2 1035.27 325.2ZM1038.03 327.84V350H1032.43V327.84H1038.03ZM1049.16 331.28C1049.88 330.107 1050.82 329.187 1051.96 328.52C1053.14 327.853 1054.47 327.52 1055.96 327.52V333.4H1054.48C1052.72 333.4 1051.39 333.813 1050.48 334.64C1049.6 335.467 1049.16 336.907 1049.16 338.96V350H1043.56V327.84H1049.16V331.28ZM1080.34 338.44C1080.34 339.24 1080.28 339.96 1080.18 340.6H1063.98C1064.11 342.2 1064.67 343.453 1065.66 344.36C1066.64 345.267 1067.86 345.72 1069.3 345.72C1071.38 345.72 1072.86 344.827 1073.74 343.04H1079.78C1079.14 345.173 1077.91 346.933 1076.1 348.32C1074.28 349.68 1072.06 350.36 1069.42 350.36C1067.28 350.36 1065.36 349.893 1063.66 348.96C1061.98 348 1060.66 346.653 1059.7 344.92C1058.76 343.187 1058.3 341.187 1058.3 338.92C1058.3 336.627 1058.76 334.613 1059.7 332.88C1060.63 331.147 1061.94 329.813 1063.62 328.88C1065.3 327.947 1067.23 327.48 1069.42 327.48C1071.52 327.48 1073.4 327.933 1075.06 328.84C1076.74 329.747 1078.03 331.04 1078.94 332.72C1079.87 334.373 1080.34 336.28 1080.34 338.44ZM1074.54 336.84C1074.51 335.4 1073.99 334.253 1072.98 333.4C1071.96 332.52 1070.72 332.08 1069.26 332.08C1067.87 332.08 1066.7 332.507 1065.74 333.36C1064.8 334.187 1064.23 335.347 1064.02 336.84H1074.54ZM1114.56 338.44C1114.56 339.24 1114.5 339.96 1114.4 340.6H1098.2C1098.33 342.2 1098.89 343.453 1099.88 344.36C1100.86 345.267 1102.08 345.72 1103.52 345.72C1105.6 345.72 1107.08 344.827 1107.96 343.04H1114C1113.36 345.173 1112.13 346.933 1110.32 348.32C1108.5 349.68 1106.28 350.36 1103.64 350.36C1101.5 350.36 1099.58 349.893 1097.88 348.96C1096.2 348 1094.88 346.653 1093.92 344.92C1092.98 343.187 1092.52 341.187 1092.52 338.92C1092.52 336.627 1092.98 334.613 1093.92 332.88C1094.85 331.147 1096.16 329.813 1097.84 328.88C1099.52 327.947 1101.45 327.48 1103.64 327.48C1105.74 327.48 1107.62 327.933 1109.28 328.84C1110.96 329.747 1112.25 331.04 1113.16 332.72C1114.09 334.373 1114.56 336.28 1114.56 338.44ZM1108.76 336.84C1108.73 335.4 1108.21 334.253 1107.2 333.4C1106.18 332.52 1104.94 332.08 1103.48 332.08C1102.09 332.08 1100.92 332.507 1099.96 333.36C1099.02 334.187 1098.45 335.347 1098.24 336.84H1108.76ZM1146.16 327.52C1148.88 327.52 1151.07 328.36 1152.72 330.04C1154.4 331.693 1155.24 334.013 1155.24 337V350H1149.64V337.76C1149.64 336.027 1149.2 334.707 1148.32 333.8C1147.44 332.867 1146.24 332.4 1144.72 332.4C1143.2 332.4 1141.99 332.867 1141.08 333.8C1140.2 334.707 1139.76 336.027 1139.76 337.76V350H1134.16V337.76C1134.16 336.027 1133.72 334.707 1132.84 333.8C1131.96 332.867 1130.76 332.4 1129.24 332.4C1127.7 332.4 1126.47 332.867 1125.56 333.8C1124.68 334.707 1124.24 336.027 1124.24 337.76V350H1118.64V327.84H1124.24V330.52C1124.96 329.587 1125.88 328.853 1127 328.32C1128.15 327.787 1129.4 327.52 1130.76 327.52C1132.5 327.52 1134.04 327.893 1135.4 328.64C1136.76 329.36 1137.82 330.4 1138.56 331.76C1139.28 330.48 1140.32 329.453 1141.68 328.68C1143.07 327.907 1144.56 327.52 1146.16 327.52ZM1166.16 331.04C1166.88 330.027 1167.86 329.187 1169.12 328.52C1170.4 327.827 1171.85 327.48 1173.48 327.48C1175.37 327.48 1177.08 327.947 1178.6 328.88C1180.14 329.813 1181.36 331.147 1182.24 332.88C1183.14 334.587 1183.6 336.573 1183.6 338.84C1183.6 341.107 1183.14 343.12 1182.24 344.88C1181.36 346.613 1180.14 347.96 1178.6 348.92C1177.08 349.88 1175.37 350.36 1173.48 350.36C1171.85 350.36 1170.41 350.027 1169.16 349.36C1167.93 348.693 1166.93 347.853 1166.16 346.84V360.56H1160.56V327.84H1166.16V331.04ZM1177.88 338.84C1177.88 337.507 1177.6 336.36 1177.04 335.4C1176.5 334.413 1175.78 333.667 1174.88 333.16C1174 332.653 1173.04 332.4 1172 332.4C1170.98 332.4 1170.02 332.667 1169.12 333.2C1168.24 333.707 1167.52 334.453 1166.96 335.44C1166.42 336.427 1166.16 337.587 1166.16 338.92C1166.16 340.253 1166.42 341.413 1166.96 342.4C1167.52 343.387 1168.24 344.147 1169.12 344.68C1170.02 345.187 1170.98 345.44 1172 345.44C1173.04 345.44 1174 345.173 1174.88 344.64C1175.78 344.107 1176.5 343.347 1177.04 342.36C1177.6 341.373 1177.88 340.2 1177.88 338.84ZM1193.27 320.4V350H1187.67V320.4H1193.27ZM1208.64 350.36C1206.51 350.36 1204.59 349.893 1202.88 348.96C1201.17 348 1199.83 346.653 1198.84 344.92C1197.88 343.187 1197.4 341.187 1197.4 338.92C1197.4 336.653 1197.89 334.653 1198.88 332.92C1199.89 331.187 1201.27 329.853 1203 328.92C1204.73 327.96 1206.67 327.48 1208.8 327.48C1210.93 327.48 1212.87 327.96 1214.6 328.92C1216.33 329.853 1217.69 331.187 1218.68 332.92C1219.69 334.653 1220.2 336.653 1220.2 338.92C1220.2 341.187 1219.68 343.187 1218.64 344.92C1217.63 346.653 1216.24 348 1214.48 348.96C1212.75 349.893 1210.8 350.36 1208.64 350.36ZM1208.64 345.48C1209.65 345.48 1210.6 345.24 1211.48 344.76C1212.39 344.253 1213.11 343.507 1213.64 342.52C1214.17 341.533 1214.44 340.333 1214.44 338.92C1214.44 336.813 1213.88 335.2 1212.76 334.08C1211.67 332.933 1210.32 332.36 1208.72 332.36C1207.12 332.36 1205.77 332.933 1204.68 334.08C1203.61 335.2 1203.08 336.813 1203.08 338.92C1203.08 341.027 1203.6 342.653 1204.64 343.8C1205.71 344.92 1207.04 345.48 1208.64 345.48ZM1245.51 327.84L1231.79 360.48H1225.83L1230.63 349.44L1221.75 327.84H1228.03L1233.75 343.32L1239.55 327.84H1245.51ZM1269.13 338.44C1269.13 339.24 1269.07 339.96 1268.97 340.6H1252.77C1252.9 342.2 1253.46 343.453 1254.45 344.36C1255.43 345.267 1256.65 345.72 1258.09 345.72C1260.17 345.72 1261.65 344.827 1262.53 343.04H1268.57C1267.93 345.173 1266.7 346.933 1264.89 348.32C1263.07 349.68 1260.85 350.36 1258.21 350.36C1256.07 350.36 1254.15 349.893 1252.45 348.96C1250.77 348 1249.45 346.653 1248.49 344.92C1247.55 343.187 1247.09 341.187 1247.09 338.92C1247.09 336.627 1247.55 334.613 1248.49 332.88C1249.42 331.147 1250.73 329.813 1252.41 328.88C1254.09 327.947 1256.02 327.48 1258.21 327.48C1260.31 327.48 1262.19 327.933 1263.85 328.84C1265.53 329.747 1266.82 331.04 1267.73 332.72C1268.66 334.373 1269.13 336.28 1269.13 338.44ZM1263.33 336.84C1263.3 335.4 1262.78 334.253 1261.77 333.4C1260.75 332.52 1259.51 332.08 1258.05 332.08C1256.66 332.08 1255.49 332.507 1254.53 333.36C1253.59 334.187 1253.02 335.347 1252.81 336.84H1263.33ZM1293.81 338.44C1293.81 339.24 1293.76 339.96 1293.65 340.6H1277.45C1277.59 342.2 1278.15 343.453 1279.13 344.36C1280.12 345.267 1281.33 345.72 1282.77 345.72C1284.85 345.72 1286.33 344.827 1287.21 343.04H1293.25C1292.61 345.173 1291.39 346.933 1289.57 348.32C1287.76 349.68 1285.53 350.36 1282.89 350.36C1280.76 350.36 1278.84 349.893 1277.13 348.96C1275.45 348 1274.13 346.653 1273.17 344.92C1272.24 343.187 1271.77 341.187 1271.77 338.92C1271.77 336.627 1272.24 334.613 1273.17 332.88C1274.11 331.147 1275.41 329.813 1277.09 328.88C1278.77 327.947 1280.71 327.48 1282.89 327.48C1285 327.48 1286.88 327.933 1288.53 328.84C1290.21 329.747 1291.51 331.04 1292.41 332.72C1293.35 334.373 1293.81 336.28 1293.81 338.44ZM1288.01 336.84C1287.99 335.4 1287.47 334.253 1286.45 333.4C1285.44 332.52 1284.2 332.08 1282.73 332.08C1281.35 332.08 1280.17 332.507 1279.21 333.36C1278.28 334.187 1277.71 335.347 1277.49 336.84H1288.01ZM1306.38 350.36C1304.57 350.36 1302.94 350.04 1301.5 349.4C1300.06 348.733 1298.91 347.84 1298.06 346.72C1297.23 345.6 1296.78 344.36 1296.7 343H1302.34C1302.45 343.853 1302.86 344.56 1303.58 345.12C1304.33 345.68 1305.25 345.96 1306.34 345.96C1307.41 345.96 1308.23 345.747 1308.82 345.32C1309.43 344.893 1309.74 344.347 1309.74 343.68C1309.74 342.96 1309.37 342.427 1308.62 342.08C1307.9 341.707 1306.74 341.307 1305.14 340.88C1303.49 340.48 1302.13 340.067 1301.06 339.64C1300.02 339.213 1299.11 338.56 1298.34 337.68C1297.59 336.8 1297.22 335.613 1297.22 334.12C1297.22 332.893 1297.57 331.773 1298.26 330.76C1298.98 329.747 1299.99 328.947 1301.3 328.36C1302.63 327.773 1304.19 327.48 1305.98 327.48C1308.62 327.48 1310.73 328.147 1312.3 329.48C1313.87 330.787 1314.74 332.56 1314.9 334.8H1309.54C1309.46 333.92 1309.09 333.227 1308.42 332.72C1307.78 332.187 1306.91 331.92 1305.82 331.92C1304.81 331.92 1304.02 332.107 1303.46 332.48C1302.93 332.853 1302.66 333.373 1302.66 334.04C1302.66 334.787 1303.03 335.36 1303.78 335.76C1304.53 336.133 1305.69 336.52 1307.26 336.92C1308.86 337.32 1310.18 337.733 1311.22 338.16C1312.26 338.587 1313.15 339.253 1313.9 340.16C1314.67 341.04 1315.07 342.213 1315.1 343.68C1315.1 344.96 1314.74 346.107 1314.02 347.12C1313.33 348.133 1312.31 348.933 1310.98 349.52C1309.67 350.08 1308.14 350.36 1306.38 350.36ZM1013.92 387.44H1010.04V405H1004.36V387.44H1001.84V382.84H1004.36V381.72C1004.36 379 1005.13 377 1006.68 375.72C1008.23 374.44 1010.56 373.84 1013.68 373.92V378.64C1012.32 378.613 1011.37 378.84 1010.84 379.32C1010.31 379.8 1010.04 380.667 1010.04 381.92V382.84H1013.92V387.44ZM1023.15 386.28C1023.87 385.107 1024.8 384.187 1025.95 383.52C1027.12 382.853 1028.46 382.52 1029.95 382.52V388.4H1028.47C1026.71 388.4 1025.38 388.813 1024.47 389.64C1023.59 390.467 1023.15 391.907 1023.15 393.96V405H1017.55V382.84H1023.15V386.28ZM1043.56 405.36C1041.43 405.36 1039.51 404.893 1037.8 403.96C1036.09 403 1034.75 401.653 1033.76 399.92C1032.8 398.187 1032.32 396.187 1032.32 393.92C1032.32 391.653 1032.81 389.653 1033.8 387.92C1034.81 386.187 1036.19 384.853 1037.92 383.92C1039.65 382.96 1041.59 382.48 1043.72 382.48C1045.85 382.48 1047.79 382.96 1049.52 383.92C1051.25 384.853 1052.61 386.187 1053.6 387.92C1054.61 389.653 1055.12 391.653 1055.12 393.92C1055.12 396.187 1054.6 398.187 1053.56 399.92C1052.55 401.653 1051.16 403 1049.4 403.96C1047.67 404.893 1045.72 405.36 1043.56 405.36ZM1043.56 400.48C1044.57 400.48 1045.52 400.24 1046.4 399.76C1047.31 399.253 1048.03 398.507 1048.56 397.52C1049.09 396.533 1049.36 395.333 1049.36 393.92C1049.36 391.813 1048.8 390.2 1047.68 389.08C1046.59 387.933 1045.24 387.36 1043.64 387.36C1042.04 387.36 1040.69 387.933 1039.6 389.08C1038.53 390.2 1038 391.813 1038 393.92C1038 396.027 1038.52 397.653 1039.56 398.8C1040.63 399.92 1041.96 400.48 1043.56 400.48ZM1086.75 382.52C1089.47 382.52 1091.66 383.36 1093.31 385.04C1094.99 386.693 1095.83 389.013 1095.83 392V405H1090.23V392.76C1090.23 391.027 1089.79 389.707 1088.91 388.8C1088.03 387.867 1086.83 387.4 1085.31 387.4C1083.79 387.4 1082.58 387.867 1081.67 388.8C1080.79 389.707 1080.35 391.027 1080.35 392.76V405H1074.75V392.76C1074.75 391.027 1074.31 389.707 1073.43 388.8C1072.55 387.867 1071.35 387.4 1069.83 387.4C1068.28 387.4 1067.06 387.867 1066.15 388.8C1065.27 389.707 1064.83 391.027 1064.83 392.76V405H1059.23V382.84H1064.83V385.52C1065.55 384.587 1066.47 383.853 1067.59 383.32C1068.74 382.787 1069.99 382.52 1071.35 382.52C1073.08 382.52 1074.63 382.893 1075.99 383.64C1077.35 384.36 1078.4 385.4 1079.15 386.76C1079.87 385.48 1080.91 384.453 1082.27 383.68C1083.66 382.907 1085.15 382.52 1086.75 382.52ZM1109.23 393.84C1109.23 391.6 1109.67 389.613 1110.55 387.88C1111.46 386.147 1112.67 384.813 1114.19 383.88C1115.74 382.947 1117.46 382.48 1119.35 382.48C1121.01 382.48 1122.45 382.813 1123.67 383.48C1124.93 384.147 1125.93 384.987 1126.67 386V382.84H1132.31V405H1126.67V401.76C1125.95 402.8 1124.95 403.667 1123.67 404.36C1122.42 405.027 1120.97 405.36 1119.31 405.36C1117.45 405.36 1115.74 404.88 1114.19 403.92C1112.67 402.96 1111.46 401.613 1110.55 399.88C1109.67 398.12 1109.23 396.107 1109.23 393.84ZM1126.67 393.92C1126.67 392.56 1126.41 391.4 1125.87 390.44C1125.34 389.453 1124.62 388.707 1123.71 388.2C1122.81 387.667 1121.83 387.4 1120.79 387.4C1119.75 387.4 1118.79 387.653 1117.91 388.16C1117.03 388.667 1116.31 389.413 1115.75 390.4C1115.22 391.36 1114.95 392.507 1114.95 393.84C1114.95 395.173 1115.22 396.347 1115.75 397.36C1116.31 398.347 1117.03 399.107 1117.91 399.64C1118.82 400.173 1119.78 400.44 1120.79 400.44C1121.83 400.44 1122.81 400.187 1123.71 399.68C1124.62 399.147 1125.34 398.4 1125.87 397.44C1126.41 396.453 1126.67 395.28 1126.67 393.92ZM1143.38 386.28C1144.1 385.107 1145.04 384.187 1146.18 383.52C1147.36 382.853 1148.69 382.52 1150.18 382.52V388.4H1148.7C1146.94 388.4 1145.61 388.813 1144.7 389.64C1143.82 390.467 1143.38 391.907 1143.38 393.96V405H1137.78V382.84H1143.38V386.28ZM1163.8 405.36C1161.66 405.36 1159.74 404.893 1158.04 403.96C1156.33 403 1154.98 401.653 1154 399.92C1153.04 398.187 1152.56 396.187 1152.56 393.92C1152.56 391.653 1153.05 389.653 1154.04 387.92C1155.05 386.187 1156.42 384.853 1158.16 383.92C1159.89 382.96 1161.82 382.48 1163.96 382.48C1166.09 382.48 1168.02 382.96 1169.76 383.92C1171.49 384.853 1172.85 386.187 1173.84 387.92C1174.85 389.653 1175.36 391.653 1175.36 393.92C1175.36 396.187 1174.84 398.187 1173.8 399.92C1172.78 401.653 1171.4 403 1169.64 403.96C1167.9 404.893 1165.96 405.36 1163.8 405.36ZM1163.8 400.48C1164.81 400.48 1165.76 400.24 1166.64 399.76C1167.54 399.253 1168.26 398.507 1168.8 397.52C1169.33 396.533 1169.6 395.333 1169.6 393.92C1169.6 391.813 1169.04 390.2 1167.92 389.08C1166.82 387.933 1165.48 387.36 1163.88 387.36C1162.28 387.36 1160.93 387.933 1159.84 389.08C1158.77 390.2 1158.24 391.813 1158.24 393.92C1158.24 396.027 1158.76 397.653 1159.8 398.8C1160.86 399.92 1162.2 400.48 1163.8 400.48ZM1200.38 382.84V405H1194.74V402.2C1194.02 403.16 1193.08 403.92 1191.9 404.48C1190.76 405.013 1189.5 405.28 1188.14 405.28C1186.41 405.28 1184.88 404.92 1183.54 404.2C1182.21 403.453 1181.16 402.373 1180.38 400.96C1179.64 399.52 1179.26 397.813 1179.26 395.84V382.84H1184.86V395.04C1184.86 396.8 1185.3 398.16 1186.18 399.12C1187.06 400.053 1188.26 400.52 1189.78 400.52C1191.33 400.52 1192.54 400.053 1193.42 399.12C1194.3 398.16 1194.74 396.8 1194.74 395.04V382.84H1200.38ZM1218.19 382.52C1220.83 382.52 1222.96 383.36 1224.59 385.04C1226.22 386.693 1227.03 389.013 1227.03 392V405H1221.43V392.76C1221.43 391 1220.99 389.653 1220.11 388.72C1219.23 387.76 1218.03 387.28 1216.51 387.28C1214.96 387.28 1213.74 387.76 1212.83 388.72C1211.95 389.653 1211.51 391 1211.51 392.76V405H1205.91V382.84H1211.51V385.6C1212.26 384.64 1213.2 383.893 1214.35 383.36C1215.52 382.8 1216.8 382.52 1218.19 382.52ZM1230.91 393.84C1230.91 391.6 1231.35 389.613 1232.23 387.88C1233.14 386.147 1234.37 384.813 1235.91 383.88C1237.46 382.947 1239.18 382.48 1241.07 382.48C1242.51 382.48 1243.89 382.8 1245.19 383.44C1246.5 384.053 1247.54 384.88 1248.31 385.92V375.4H1253.99V405H1248.31V401.72C1247.62 402.813 1246.65 403.693 1245.39 404.36C1244.14 405.027 1242.69 405.36 1241.03 405.36C1239.17 405.36 1237.46 404.88 1235.91 403.92C1234.37 402.96 1233.14 401.613 1232.23 399.88C1231.35 398.12 1230.91 396.107 1230.91 393.84ZM1248.35 393.92C1248.35 392.56 1248.09 391.4 1247.55 390.44C1247.02 389.453 1246.3 388.707 1245.39 388.2C1244.49 387.667 1243.51 387.4 1242.47 387.4C1241.43 387.4 1240.47 387.653 1239.59 388.16C1238.71 388.667 1237.99 389.413 1237.43 390.4C1236.9 391.36 1236.63 392.507 1236.63 393.84C1236.63 395.173 1236.9 396.347 1237.43 397.36C1237.99 398.347 1238.71 399.107 1239.59 399.64C1240.5 400.173 1241.46 400.44 1242.47 400.44C1243.51 400.44 1244.49 400.187 1245.39 399.68C1246.3 399.147 1247.02 398.4 1247.55 397.44C1248.09 396.453 1248.35 395.28 1248.35 393.92ZM1275.51 387.44V398.16C1275.51 398.907 1275.69 399.453 1276.03 399.8C1276.41 400.12 1277.02 400.28 1277.87 400.28H1280.47V405H1276.95C1272.23 405 1269.87 402.707 1269.87 398.12V387.44H1267.23V382.84H1269.87V377.36H1275.51V382.84H1280.47V387.44H1275.51ZM1296.98 382.52C1298.66 382.52 1300.16 382.893 1301.46 383.64C1302.77 384.36 1303.78 385.44 1304.5 386.88C1305.25 388.293 1305.62 390 1305.62 392V405H1300.02V392.76C1300.02 391 1299.58 389.653 1298.7 388.72C1297.82 387.76 1296.62 387.28 1295.1 387.28C1293.56 387.28 1292.33 387.76 1291.42 388.72C1290.54 389.653 1290.1 391 1290.1 392.76V405H1284.5V375.4H1290.1V385.6C1290.82 384.64 1291.78 383.893 1292.98 383.36C1294.18 382.8 1295.52 382.52 1296.98 382.52ZM1331.55 393.44C1331.55 394.24 1331.49 394.96 1331.39 395.6H1315.19C1315.32 397.2 1315.88 398.453 1316.87 399.36C1317.85 400.267 1319.07 400.72 1320.51 400.72C1322.59 400.72 1324.07 399.827 1324.95 398.04H1330.99C1330.35 400.173 1329.12 401.933 1327.31 403.32C1325.49 404.68 1323.27 405.36 1320.63 405.36C1318.49 405.36 1316.57 404.893 1314.87 403.96C1313.19 403 1311.87 401.653 1310.91 399.92C1309.97 398.187 1309.51 396.187 1309.51 393.92C1309.51 391.627 1309.97 389.613 1310.91 387.88C1311.84 386.147 1313.15 384.813 1314.83 383.88C1316.51 382.947 1318.44 382.48 1320.63 382.48C1322.73 382.48 1324.61 382.933 1326.27 383.84C1327.95 384.747 1329.24 386.04 1330.15 387.72C1331.08 389.373 1331.55 391.28 1331.55 393.44ZM1325.75 391.84C1325.72 390.4 1325.2 389.253 1324.19 388.4C1323.17 387.52 1321.93 387.08 1320.47 387.08C1319.08 387.08 1317.91 387.507 1316.95 388.36C1316.01 389.187 1315.44 390.347 1315.23 391.84H1325.75ZM1034.48 437.84L1028 460H1021.96L1017.92 444.52L1013.88 460H1007.8L1001.28 437.84H1006.96L1010.88 454.72L1015.12 437.84H1021.04L1025.2 454.68L1029.12 437.84H1034.48ZM1047.35 460.36C1045.22 460.36 1043.3 459.893 1041.59 458.96C1039.88 458 1038.54 456.653 1037.55 454.92C1036.59 453.187 1036.11 451.187 1036.11 448.92C1036.11 446.653 1036.6 444.653 1037.59 442.92C1038.6 441.187 1039.98 439.853 1041.71 438.92C1043.44 437.96 1045.38 437.48 1047.51 437.48C1049.64 437.48 1051.58 437.96 1053.31 438.92C1055.04 439.853 1056.4 441.187 1057.39 442.92C1058.4 444.653 1058.91 446.653 1058.91 448.92C1058.91 451.187 1058.39 453.187 1057.35 454.92C1056.34 456.653 1054.95 458 1053.19 458.96C1051.46 459.893 1049.51 460.36 1047.35 460.36ZM1047.35 455.48C1048.36 455.48 1049.31 455.24 1050.19 454.76C1051.1 454.253 1051.82 453.507 1052.35 452.52C1052.88 451.533 1053.15 450.333 1053.15 448.92C1053.15 446.813 1052.59 445.2 1051.47 444.08C1050.38 442.933 1049.03 442.36 1047.43 442.36C1045.83 442.36 1044.48 442.933 1043.39 444.08C1042.32 445.2 1041.79 446.813 1041.79 448.92C1041.79 451.027 1042.31 452.653 1043.35 453.8C1044.42 454.92 1045.75 455.48 1047.35 455.48ZM1068.62 441.28C1069.34 440.107 1070.27 439.187 1071.42 438.52C1072.59 437.853 1073.92 437.52 1075.42 437.52V443.4H1073.94C1072.18 443.4 1070.84 443.813 1069.94 444.64C1069.06 445.467 1068.62 446.907 1068.62 448.96V460H1063.02V437.84H1068.62V441.28ZM1084.79 430.4V460H1079.19V430.4H1084.79ZM1088.88 448.84C1088.88 446.6 1089.32 444.613 1090.2 442.88C1091.11 441.147 1092.34 439.813 1093.88 438.88C1095.43 437.947 1097.15 437.48 1099.04 437.48C1100.48 437.48 1101.86 437.8 1103.16 438.44C1104.47 439.053 1105.51 439.88 1106.28 440.92V430.4H1111.96V460H1106.28V456.72C1105.59 457.813 1104.62 458.693 1103.36 459.36C1102.11 460.027 1100.66 460.36 1099 460.36C1097.14 460.36 1095.43 459.88 1093.88 458.92C1092.34 457.96 1091.11 456.613 1090.2 454.88C1089.32 453.12 1088.88 451.107 1088.88 448.84ZM1106.32 448.92C1106.32 447.56 1106.06 446.4 1105.52 445.44C1104.99 444.453 1104.27 443.707 1103.36 443.2C1102.46 442.667 1101.48 442.4 1100.44 442.4C1099.4 442.4 1098.44 442.653 1097.56 443.16C1096.68 443.667 1095.96 444.413 1095.4 445.4C1094.87 446.36 1094.6 447.507 1094.6 448.84C1094.6 450.173 1094.87 451.347 1095.4 452.36C1095.96 453.347 1096.68 454.107 1097.56 454.64C1098.47 455.173 1099.43 455.44 1100.44 455.44C1101.48 455.44 1102.46 455.187 1103.36 454.68C1104.27 454.147 1104.99 453.4 1105.52 452.44C1106.06 451.453 1106.32 450.28 1106.32 448.92Z" fill="white"/>
</svg>
